<mxfile host="app.diagrams.net" modified="2023-06-24T21:19:35.122Z" agent="Mozilla/5.0 (Windows NT 10.0; Win64; x64) AppleWebKit/537.36 (KHTML, like Gecko) Chrome/114.0.0.0 Safari/537.36" etag="NPRfhSqkZ_Z3__nlgj5n" version="21.5.0" type="device">
  <diagram id="utDxheexQ536E2p-GYgD" name="Page-1">
    <mxGraphModel dx="683" dy="379" grid="1" gridSize="10" guides="1" tooltips="1" connect="1" arrows="1" fold="1" page="1" pageScale="1" pageWidth="850" pageHeight="1100" math="0" shadow="0">
      <root>
        <mxCell id="0" />
        <mxCell id="1" parent="0" />
        <mxCell id="aF8u2nzi9HOpPOC4Elnm-6" value="" style="edgeStyle=orthogonalEdgeStyle;rounded=0;orthogonalLoop=1;jettySize=auto;html=1;" parent="1" source="aF8u2nzi9HOpPOC4Elnm-1" target="aF8u2nzi9HOpPOC4Elnm-2" edge="1">
          <mxGeometry relative="1" as="geometry" />
        </mxCell>
        <mxCell id="aF8u2nzi9HOpPOC4Elnm-1" value="&lt;font style=&quot;font-size: 14px;&quot;&gt;Read in &lt;br&gt;training images, task images, and answer keys&lt;/font&gt;" style="rounded=1;whiteSpace=wrap;html=1;strokeWidth=2;" parent="1" vertex="1">
          <mxGeometry x="130" y="150" width="110" height="110" as="geometry" />
        </mxCell>
        <mxCell id="aF8u2nzi9HOpPOC4Elnm-7" value="Textboxes&lt;br&gt;Clicked" style="edgeStyle=orthogonalEdgeStyle;rounded=0;orthogonalLoop=1;jettySize=auto;html=1;" parent="1" source="aF8u2nzi9HOpPOC4Elnm-2" target="aF8u2nzi9HOpPOC4Elnm-3" edge="1">
          <mxGeometry relative="1" as="geometry" />
        </mxCell>
        <mxCell id="aF8u2nzi9HOpPOC4Elnm-2" value="&lt;span style=&quot;font-size: 14px;&quot;&gt;Menu&lt;/span&gt;" style="rounded=1;whiteSpace=wrap;html=1;fillColor=#f5f5f5;fontColor=#333333;strokeColor=#666666;strokeWidth=2;" parent="1" vertex="1">
          <mxGeometry x="330" y="150" width="110" height="110" as="geometry" />
        </mxCell>
        <mxCell id="aF8u2nzi9HOpPOC4Elnm-8" value="Training Clicked" style="edgeStyle=orthogonalEdgeStyle;rounded=0;orthogonalLoop=1;jettySize=auto;html=1;entryX=0;entryY=0.5;entryDx=0;entryDy=0;" parent="1" source="aF8u2nzi9HOpPOC4Elnm-3" target="aF8u2nzi9HOpPOC4Elnm-4" edge="1">
          <mxGeometry x="-0.0241" relative="1" as="geometry">
            <Array as="points">
              <mxPoint x="670" y="205" />
              <mxPoint x="670" y="290" />
              <mxPoint x="100" y="290" />
              <mxPoint x="100" y="385" />
            </Array>
            <mxPoint as="offset" />
            <mxPoint x="110" y="390" as="targetPoint" />
          </mxGeometry>
        </mxCell>
        <mxCell id="aF8u2nzi9HOpPOC4Elnm-3" value="&lt;span style=&quot;font-size: 14px;&quot;&gt;Type in&lt;br&gt;subject ID &lt;br&gt;and condition&lt;/span&gt;" style="rounded=1;whiteSpace=wrap;html=1;fillColor=#f5f5f5;fontColor=#333333;strokeColor=#666666;strokeWidth=2;" parent="1" vertex="1">
          <mxGeometry x="530" y="150" width="110" height="110" as="geometry" />
        </mxCell>
        <mxCell id="aF8u2nzi9HOpPOC4Elnm-9" value="Start&lt;br&gt;Clicked" style="edgeStyle=orthogonalEdgeStyle;rounded=0;orthogonalLoop=1;jettySize=auto;html=1;exitX=1;exitY=0.5;exitDx=0;exitDy=0;" parent="1" source="aF8u2nzi9HOpPOC4Elnm-4" target="aF8u2nzi9HOpPOC4Elnm-5" edge="1">
          <mxGeometry relative="1" as="geometry">
            <mxPoint x="250" y="410" as="sourcePoint" />
          </mxGeometry>
        </mxCell>
        <mxCell id="aF8u2nzi9HOpPOC4Elnm-4" value="&lt;span style=&quot;font-size: 14px;&quot;&gt;Training&lt;/span&gt;" style="rounded=1;whiteSpace=wrap;html=1;fillColor=#dae8fc;strokeColor=#6c8ebf;strokeWidth=2;" parent="1" vertex="1">
          <mxGeometry x="130" y="330" width="110" height="110" as="geometry" />
        </mxCell>
        <mxCell id="aF8u2nzi9HOpPOC4Elnm-11" value="&#39;L&#39; Key&lt;br&gt;Pressed" style="edgeStyle=orthogonalEdgeStyle;rounded=0;orthogonalLoop=1;jettySize=auto;html=1;exitX=0.994;exitY=0.148;exitDx=0;exitDy=0;exitPerimeter=0;" parent="1" source="aF8u2nzi9HOpPOC4Elnm-5" target="aF8u2nzi9HOpPOC4Elnm-10" edge="1">
          <mxGeometry relative="1" as="geometry">
            <Array as="points">
              <mxPoint x="439" y="350" />
            </Array>
          </mxGeometry>
        </mxCell>
        <mxCell id="aF8u2nzi9HOpPOC4Elnm-5" value="&lt;span style=&quot;font-size: 14px;&quot;&gt;Task&lt;/span&gt;" style="rounded=1;whiteSpace=wrap;html=1;fillColor=#d5e8d4;strokeColor=#82b366;strokeWidth=2;" parent="1" vertex="1">
          <mxGeometry x="330" y="330" width="110" height="110" as="geometry" />
        </mxCell>
        <mxCell id="aF8u2nzi9HOpPOC4Elnm-10" value="&lt;span style=&quot;font-size: 14px;&quot;&gt;Task locked&lt;/span&gt;" style="rounded=1;whiteSpace=wrap;html=1;strokeColor=#82B366;strokeWidth=2;" parent="1" vertex="1">
          <mxGeometry x="530" y="330" width="110" height="40" as="geometry" />
        </mxCell>
        <mxCell id="_mMOzX6A-Cy7h1XtxhJS-5" value="" style="edgeStyle=orthogonalEdgeStyle;rounded=0;orthogonalLoop=1;jettySize=auto;html=1;" parent="1" source="_mMOzX6A-Cy7h1XtxhJS-1" target="_mMOzX6A-Cy7h1XtxhJS-4" edge="1">
          <mxGeometry relative="1" as="geometry" />
        </mxCell>
        <mxCell id="_mMOzX6A-Cy7h1XtxhJS-1" value="&lt;font style=&quot;font-size: 14px;&quot;&gt;Training Images&lt;/font&gt;" style="rounded=0;whiteSpace=wrap;html=1;strokeWidth=2;" parent="1" vertex="1">
          <mxGeometry x="100" y="640" width="120" height="60" as="geometry" />
        </mxCell>
        <mxCell id="_mMOzX6A-Cy7h1XtxhJS-6" value="" style="edgeStyle=orthogonalEdgeStyle;rounded=0;orthogonalLoop=1;jettySize=auto;html=1;" parent="1" source="_mMOzX6A-Cy7h1XtxhJS-2" target="_mMOzX6A-Cy7h1XtxhJS-4" edge="1">
          <mxGeometry relative="1" as="geometry" />
        </mxCell>
        <mxCell id="_mMOzX6A-Cy7h1XtxhJS-2" value="&lt;font style=&quot;font-size: 14px;&quot;&gt;Task Images&lt;/font&gt;" style="rounded=0;whiteSpace=wrap;html=1;strokeWidth=2;" parent="1" vertex="1">
          <mxGeometry x="100" y="710" width="120" height="60" as="geometry" />
        </mxCell>
        <mxCell id="_mMOzX6A-Cy7h1XtxhJS-7" value="" style="edgeStyle=orthogonalEdgeStyle;rounded=0;orthogonalLoop=1;jettySize=auto;html=1;" parent="1" source="_mMOzX6A-Cy7h1XtxhJS-3" target="_mMOzX6A-Cy7h1XtxhJS-4" edge="1">
          <mxGeometry relative="1" as="geometry" />
        </mxCell>
        <mxCell id="_mMOzX6A-Cy7h1XtxhJS-3" value="&lt;font style=&quot;font-size: 14px;&quot;&gt;Answer Keys&lt;/font&gt;" style="rounded=0;whiteSpace=wrap;html=1;strokeWidth=2;" parent="1" vertex="1">
          <mxGeometry x="100" y="780" width="120" height="60" as="geometry" />
        </mxCell>
        <mxCell id="_mMOzX6A-Cy7h1XtxhJS-9" value="" style="edgeStyle=orthogonalEdgeStyle;rounded=0;orthogonalLoop=1;jettySize=auto;html=1;" parent="1" source="_mMOzX6A-Cy7h1XtxhJS-4" target="_mMOzX6A-Cy7h1XtxhJS-8" edge="1">
          <mxGeometry relative="1" as="geometry" />
        </mxCell>
        <mxCell id="_mMOzX6A-Cy7h1XtxhJS-4" value="&lt;span style=&quot;font-size: 14px;&quot;&gt;Spot Report Program&lt;/span&gt;" style="rounded=1;whiteSpace=wrap;html=1;fillColor=#f5f5f5;fontColor=#333333;strokeColor=#666666;strokeWidth=2;" parent="1" vertex="1">
          <mxGeometry x="320" y="685" width="110" height="110" as="geometry" />
        </mxCell>
        <mxCell id="_mMOzX6A-Cy7h1XtxhJS-8" value="&lt;span style=&quot;font-size: 14px;&quot;&gt;Output Log File&lt;/span&gt;" style="rounded=0;whiteSpace=wrap;html=1;fillColor=#dae8fc;strokeColor=#6c8ebf;strokeWidth=2;" parent="1" vertex="1">
          <mxGeometry x="480" y="710" width="120" height="60" as="geometry" />
        </mxCell>
        <mxCell id="afpjXKQIBQ34pIyF-vlm-2" value="&#39;O&#39; Key&lt;br&gt;Pressed" style="endArrow=classic;html=1;rounded=0;exitX=1;exitY=0.5;exitDx=0;exitDy=0;entryX=1.003;entryY=0.814;entryDx=0;entryDy=0;entryPerimeter=0;" edge="1" parent="1" source="aF8u2nzi9HOpPOC4Elnm-10" target="aF8u2nzi9HOpPOC4Elnm-5">
          <mxGeometry x="0.3181" width="50" height="50" relative="1" as="geometry">
            <mxPoint x="400" y="380" as="sourcePoint" />
            <mxPoint x="640" y="420" as="targetPoint" />
            <Array as="points">
              <mxPoint x="670" y="350" />
              <mxPoint x="670" y="420" />
            </Array>
            <mxPoint as="offset" />
          </mxGeometry>
        </mxCell>
      </root>
    </mxGraphModel>
  </diagram>
</mxfile>
